<mxfile host="app.diagrams.net" modified="2023-11-15T19:33:54.890Z" agent="Mozilla/5.0 (X11; Linux x86_64; rv:109.0) Gecko/20100101 Firefox/114.0" version="22.1.2" etag="smPmd-tFJmQiHsQgRzYE" type="github">
  <diagram name="PÃ¡gina-1" id="0DZCaoVZFHlY1xF_E3zM">
    <mxGraphModel>
      <root>
        <mxCell id="0" />
        <mxCell id="1" parent="0" />
      </root>
    </mxGraphModel>
  </diagram>
</mxfile>
